<svg width="600" height="400" xmlns="http://www.w3.org/2000/svg">
  <!-- Background -->
  <rect width="100%" height="100%" fill="#f8f9fa"/>

  <!-- Title -->
  <text x="300" y="30" font-family="Arial" font-size="20" text-anchor="middle" fill="#25c2a0">Advanced Physical AI Concepts</text>

  <!-- Central robot concept -->
  <circle cx="300" cy="200" r="40" fill="#c8e6c9" stroke="#388e3c" stroke-width="3"/> <!-- Head -->
  <rect x="285" y="240" width="30" height="70" fill="#c8e6c9" stroke="#388e3c" stroke-width="3"/> <!-- Body -->
  <line x1="280" y1="250" x2="250" y2="260" stroke="#388e3c" stroke-width="4"/> <!-- Left arm -->
  <line x1="320" y1="250" x2="350" y2="260" stroke="#388e3c" stroke-width="4"/> <!-- Right arm -->
  <line x1="285" y1="310" x2="275" y2="350" stroke="#388e3c" stroke-width="4"/> <!-- Left leg -->
  <line x1="315" y1="310" x2="325" y2="350" stroke="#388e3c" stroke-width="4"/> <!-- Right leg -->

  <!-- Research frontiers around the robot -->
  <!-- Morphological computation -->
  <rect x="150" y="100" width="100" height="60" fill="#e3f2fd" stroke="#1976d2" stroke-width="2" rx="5"/>
  <text x="200" y="125" font-family="Arial" font-size="10" text-anchor="middle" fill="#1976d2">Morphological</text>
  <text x="200" y="140" font-family="Arial" font-size="10" text-anchor="middle" fill="#1976d2">Computation</text>

  <!-- Multimodal learning -->
  <rect x="350" y="100" width="100" height="60" fill="#f3e5f5" stroke="#7b1fa2" stroke-width="2" rx="5"/>
  <text x="400" y="125" font-family="Arial" font-size="10" text-anchor="middle" fill="#7b1fa2">Multimodal</text>
  <text x="400" y="140" font-family="Arial" font-size="10" text-anchor="middle" fill="#7b1fa2">Learning</text>

  <!-- Neuromorphic computing -->
  <rect x="100" y="250" width="100" height="60" fill="#e8f5e9" stroke="#388e3c" stroke-width="2" rx="5"/>
  <text x="150" y="275" font-family="Arial" font-size="10" text-anchor="middle" fill="#388e3c">Neuromorphic</text>
  <text x="150" y="290" font-family="Arial" font-size="10" text-anchor="middle" fill="#388e3c">Computing</text>

  <!-- MPC -->
  <rect x="400" y="250" width="100" height="60" fill="#fff3e0" stroke="#e65100" stroke-width="2" rx="5"/>
  <text x="450" y="275" font-family="Arial" font-size="10" text-anchor="middle" fill="#e65100">Model Predictive</text>
  <text x="450" y="290" font-family="Arial" font-size="10" text-anchor="middle" fill="#e65100">Control (MPC)</text>

  <!-- Arrows connecting concepts to central robot -->
  <line x1="200" y1="160" x2="270" y2="210" stroke="#1976d2" stroke-width="2" marker-end="url(#arrow)"/>
  <line x1="400" y1="160" x2="330" y2="210" stroke="#7b1fa2" stroke-width="2" marker-end="url(#arrow)"/>
  <line x1="180" y1="280" x2="250" y2="260" stroke="#388e3c" stroke-width="2" marker-end="url(#arrow)"/>
  <line x1="420" y1="280" x2="350" y2="260" stroke="#e65100" stroke-width="2" marker-end="url(#arrow)"/>

  <!-- Advanced control concepts -->
  <rect x="50" y="330" width="100" height="50" fill="#e1f5fe" stroke="#0277bd" stroke-width="1" rx="3"/>
  <text x="100" y="345" font-family="Arial" font-size="9" text-anchor="middle" fill="#0277bd">Spiking</text>
  <text x="100" y="360" font-family="Arial" font-size="9" text-anchor="middle" fill="#0277bd">Neural</text>
  <text x="100" y="375" font-family="Arial" font-size="9" text-anchor="middle" fill="#0277bd">Networks</text>

  <rect x="160" y="330" width="100" height="50" fill="#f3e5f5" stroke="#7b1fa2" stroke-width="1" rx="3"/>
  <text x="210" y="345" font-family="Arial" font-size="9" text-anchor="middle" fill="#7b1fa2">Event-</text>
  <text x="210" y="360" font-family="Arial" font-size="9" text-anchor="middle" fill="#7b1fa2">Based</text>
  <text x="210" y="375" font-family="Arial" font-size="9" text-anchor="middle" fill="#7b1fa2">Sensing</text>

  <rect x="270" y="330" width="100" height="50" fill="#e8f5e9" stroke="#388e3c" stroke-width="1" rx="3"/>
  <text x="320" y="345" font-family="Arial" font-size="9" text-anchor="middle" fill="#388e3c">Meta-</text>
  <text x="320" y="360" font-family="Arial" font-size="9" text-anchor="middle" fill="#388e3c">Learning</text>
  <text x="320" y="375" font-family="Arial" font-size="9" text-anchor="middle" fill="#388e3c">& Adaptation</text>

  <rect x="380" y="330" width="100" height="50" fill="#fff3e0" stroke="#e65100" stroke-width="1" rx="3"/>
  <text x="430" y="345" font-family="Arial" font-size="9" text-anchor="middle" fill="#e65100">Bio-</text>
  <text x="430" y="360" font-family="Arial" font-size="9" text-anchor="middle" fill="#e65100">Inspired</text>
  <text x="430" y="375" font-family="Arial" font-size="9" text-anchor="middle" fill="#e65100">Design</text>

  <rect x="490" y="330" width="100" height="50" fill="#fce4ec" stroke="#c2185b" stroke-width="1" rx="3"/>
  <text x="540" y="345" font-family="Arial" font-size="9" text-anchor="middle" fill="#c2185b">Soft</text>
  <text x="540" y="360" font-family="Arial" font-size="9" text-anchor="middle" fill="#c2185b">Robotics</text>
  <text x="540" y="375" font-family="Arial" font-size="9" text-anchor="middle" fill="#c2185b">& Materials</text>

  <!-- Connection from advanced concepts to robot -->
  <line x1="100" y1="330" x2="250" y2="250" stroke="#0277bd" stroke-width="1" stroke-dasharray="3,3"/>
  <line x1="210" y1="330" x2="280" y2="240" stroke="#7b1fa2" stroke-width="1" stroke-dasharray="3,3"/>
  <line x1="320" y1="330" x2="300" y2="240" stroke="#388e3c" stroke-width="1" stroke-dasharray="3,3"/>
  <line x1="430" y1="330" x2="320" y2="240" stroke="#e65100" stroke-width="1" stroke-dasharray="3,3"/>
  <line x1="540" y1="330" x2="350" y2="250" stroke="#c2185b" stroke-width="1" stroke-dasharray="3,3"/>

  <!-- Research directions -->
  <rect x="200" y="50" width="200" height="30" fill="#e0f2f1" stroke="#00695c" stroke-width="2" rx="5"/>
  <text x="300" y="70" font-family="Arial" font-size="12" text-anchor="middle" fill="#00695c">Advanced Physical AI Research Directions</text>

  <!-- Labels -->
  <text x="300" y="45" font-family="Arial" font-size="12" text-anchor="middle" fill="#666">Cutting-Edge Physical AI Technologies</text>

  <!-- Legend -->
  <rect x="20" y="320" width="120" height="40" fill="white" stroke="#ccc" stroke-width="1" rx="5"/>
  <text x="80" y="335" font-family="Arial" font-size="12" text-anchor="middle" fill="#212121">Legend</text>
  <circle cx="30" cy="350" r="5" fill="#c8e6c9" stroke="#388e3c" stroke-width="1"/>
  <text x="40" y="354" font-family="Arial" font-size="10" text-anchor="start" fill="#212121">Robot</text>

  <!-- Arrow marker definition -->
  <defs>
    <marker id="arrow" markerWidth="10" markerHeight="10" refX="8" refY="3" orient="auto" markerUnits="strokeWidth">
      <path d="M0,0 L0,6 L9,3 z" fill="#000" />
    </marker>
  </defs>
</svg>