<svg width="600" height="400" xmlns="http://www.w3.org/2000/svg">
  <!-- Background -->
  <rect width="100%" height="100%" fill="#f8f9fa"/>

  <!-- Title -->
  <text x="300" y="30" font-family="Arial" font-size="20" text-anchor="middle" fill="#25c2a0">Future Robotics Technologies</text>

  <!-- Central future robot concept -->
  <circle cx="300" cy="200" r="45" fill="#e8f5e9" stroke="#388e3c" stroke-width="3"/> <!-- Head with futuristic design -->
  <rect x="285" y="245" width="30" height="75" fill="#e8f5e9" stroke="#388e3c" stroke-width="3"/> <!-- Body -->
  <line x1="280" y1="255" x2="240" y2="270" stroke="#388e3c" stroke-width="4"/> <!-- Left arm -->
  <line x1="320" y1="255" x2="360" y2="270" stroke="#388e3c" stroke-width="4"/> <!-- Right arm -->
  <line x1="285" y1="320" x2="270" y2="370" stroke="#388e3c" stroke-width="4"/> <!-- Left leg -->
  <line x1="315" y1="320" x2="330" y2="370" stroke="#388e3c" stroke-width="4"/> <!-- Right leg -->

  <!-- Futuristic elements -->
  <circle cx="300" cy="180" r="8" fill="#2196f3" stroke="#0d47a1" stroke-width="1"/> <!-- LED eye -->
  <circle cx="290" cy="245" r="3" fill="#f44336"/> <!-- Status light -->
  <circle cx="310" cy="245" r="3" fill="#f44336"/> <!-- Status light -->

  <!-- Emerging technology bubbles around the robot -->
  <!-- Quantum computing -->
  <circle cx="150" cy="100" r="30" fill="#e3f2fd" stroke="#1976d2" stroke-width="2"/>
  <text x="150" y="95" font-family="Arial" font-size="9" text-anchor="middle" fill="#1976d2">Quantum</text>
  <text x="150" y="110" font-family="Arial" font-size="9" text-anchor="middle" fill="#1976d2">Computing</text>

  <!-- Neuromorphic -->
  <circle cx="450" cy="100" r="30" fill="#f3e5f5" stroke="#7b1fa2" stroke-width="2"/>
  <text x="450" y="95" font-family="Arial" font-size="9" text-anchor="middle" fill="#7b1fa2">Neuromorphic</text>
  <text x="450" y="110" font-family="Arial" font-size="9" text-anchor="middle" fill="#7b1fa2">Hardware</text>

  <!-- Programmable matter -->
  <circle cx="120" cy="250" r="30" fill="#e0f2f1" stroke="#00695c" stroke-width="2"/>
  <text x="120" y="245" font-family="Arial" font-size="9" text-anchor="middle" fill="#00695c">Program-</text>
  <text x="120" y="260" font-family="Arial" font-size="9" text-anchor="middle" fill="#00695c">mable</text>
  <text x="120" y="275" font-family="Arial" font-size="9" text-anchor="middle" fill="#00695c">Matter</text>

  <!-- Self-healing -->
  <circle cx="480" cy="250" r="30" fill="#fff3e0" stroke="#e65100" stroke-width="2"/>
  <text x="480" y="245" font-family="Arial" font-size="9" text-anchor="middle" fill="#e65100">Self-</text>
  <text x="480" y="260" font-family="Arial" font-size="9" text-anchor="middle" fill="#e65100">Healing</text>
  <text x="480" y="275" font-family="Arial" font-size="9" text-anchor="middle" fill="#e65100">Materials</text>

  <!-- Advanced AI -->
  <circle cx="220" cy="320" r="30" fill="#c5cae9" stroke="#303f9f" stroke-width="2"/>
  <text x="220" y="315" font-family="Arial" font-size="9" text-anchor="middle" fill="#303f9f">Advanced</text>
  <text x="220" y="330" font-family="Arial" font-size="9" text-anchor="middle" fill="#303f9f">AI</text>

  <!-- Swarm robotics -->
  <circle cx="380" cy="320" r="30" fill="#ffcdd2" stroke="#d32f2f" stroke-width="2"/>
  <text x="380" y="315" font-family="Arial" font-size="9" text-anchor="middle" fill="#d32f2f">Swarm</text>
  <text x="380" y="330" font-family="Arial" font-size="9" text-anchor="middle" fill="#d32f2f">Robotics</text>

  <!-- Arrows connecting technologies to robot -->
  <line x1="180" y1="120" x2="250" y2="170" stroke="#1976d2" stroke-width="2" stroke-dasharray="4,4" marker-end="url(#arrow)"/>
  <line x1="420" y1="120" x2="350" y2="170" stroke="#7b1fa2" stroke-width="2" stroke-dasharray="4,4" marker-end="url(#arrow)"/>
  <line x1="150" y1="250" x2="250" y2="240" stroke="#00695c" stroke-width="2" stroke-dasharray="4,4" marker-end="url(#arrow)"/>
  <line x1="450" y1="250" x2="350" y2="240" stroke="#e65100" stroke-width="2" stroke-dasharray="4,4" marker-end="url(#arrow)"/>
  <line x1="240" y1="300" x2="270" y2="260" stroke="#303f9f" stroke-width="2" stroke-dasharray="4,4" marker-end="url(#arrow)"/>
  <line x1="360" y1="300" x2="330" y2="260" stroke="#d32f2f" stroke-width="2" stroke-dasharray="4,4" marker-end="url(#arrow)"/>

  <!-- Timeline arrow -->
  <line x1="100" y1="370" x2="500" y2="370" stroke="#666" stroke-width="2" marker-end="url(#arrow)"/>
  <text x="100" y="365" font-family="Arial" font-size="10" text-anchor="start" fill="#666">2025</text>
  <text x="200" y="365" font-family="Arial" font-size="10" text-anchor="middle" fill="#666">2030</text>
  <text x="300" y="365" font-family="Arial" font-size="10" text-anchor="middle" fill="#666">2035</text>
  <text x="400" y="365" font-family="Arial" font-size="10" text-anchor="middle" fill="#666">2040</text>
  <text x="500" y="365" font-family="Arial" font-size="10" text-anchor="end" fill="#666">2045</text>

  <!-- Application areas -->
  <rect x="50" y="50" width="120" height="30" fill="#e8f5e9" stroke="#388e3c" stroke-width="2" rx="5"/>
  <text x="110" y="70" font-family="Arial" font-size="10" text-anchor="middle" fill="#388e3c">Healthcare</text>

  <rect x="180" y="50" width="120" height="30" fill="#e3f2fd" stroke="#1976d2" stroke-width="2" rx="5"/>
  <text x="240" y="70" font-family="Arial" font-size="10" text-anchor="middle" fill="#1976d2">Manufacturing</text>

  <rect x="320" y="50" width="120" height="30" fill="#f3e5f5" stroke="#7b1fa2" stroke-width="2" rx="5"/>
  <text x="380" y="70" font-family="Arial" font-size="10" text-anchor="middle" fill="#7b1fa2">Exploration</text>

  <rect x="450" y="50" width="120" height="30" fill="#fff3e0" stroke="#e65100" stroke-width="2" rx="5"/>
  <text x="510" y="70" font-family="Arial" font-size="10" text-anchor="middle" fill="#e65100">Service</text>

  <!-- Societal impact -->
  <rect x="200" y="10" width="200" height="25" fill="#e0f7fa" stroke="#00838f" stroke-width="2" rx="5"/>
  <text x="300" y="28" font-family="Arial" font-size="10" text-anchor="middle" fill="#00838f">Societal Impact & Considerations</text>

  <!-- Labels -->
  <text x="300" y="45" font-family="Arial" font-size="12" text-anchor="middle" fill="#666">Emerging Technologies & Future Applications</text>

  <!-- Legend -->
  <rect x="20" y="320" width="120" height="40" fill="white" stroke="#ccc" stroke-width="1" rx="5"/>
  <text x="80" y="335" font-family="Arial" font-size="12" text-anchor="middle" fill="#212121">Legend</text>
  <circle cx="30" cy="350" r="5" fill="#e8f5e9" stroke="#388e3c" stroke-width="1"/>
  <text x="40" y="354" font-family="Arial" font-size="10" text-anchor="start" fill="#212121">Future Robot</text>

  <!-- Arrow marker definition -->
  <defs>
    <marker id="arrow" markerWidth="10" markerHeight="10" refX="8" refY="3" orient="auto" markerUnits="strokeWidth">
      <path d="M0,0 L0,6 L9,3 z" fill="#000" />
    </marker>
  </defs>
</svg>