<svg width="600" height="400" xmlns="http://www.w3.org/2000/svg">
  <!-- Background -->
  <rect width="100%" height="100%" fill="#f8f9fa"/>

  <!-- Title -->
  <text x="300" y="30" font-family="Arial" font-size="20" text-anchor="middle" fill="#25c2a0">Human-Robot Interaction</text>

  <!-- Human -->
  <circle cx="150" cy="150" r="25" fill="#bbdefb" stroke="#1976d2" stroke-width="2"/> <!-- Head -->
  <rect x="140" y="175" width="20" height="50" fill="#bbdefb" stroke="#1976d2" stroke-width="2"/> <!-- Body -->
  <line x1="135" y1="185" x2="120" y2="195" stroke="#1976d2" stroke-width="3"/> <!-- Left arm -->
  <line x1="165" y1="185" x2="180" y2="195" stroke="#1976d2" stroke-width="3"/> <!-- Right arm -->
  <line x1="145" y1="225" x2="140" y2="250" stroke="#1976d2" stroke-width="3"/> <!-- Left leg -->
  <line x1="155" y1="225" x2="160" y2="250" stroke="#1976d2" stroke-width="3"/> <!-- Right leg -->

  <!-- Human speech bubble -->
  <path d="M150,120 Q180,100 200,120 Q220,140 200,150 Q180,160 150,150 Z" fill="white" stroke="#1976d2" stroke-width="2"/>
  <text x="175" y="135" font-family="Arial" font-size="10" text-anchor="middle" fill="#1976d2">Hello!</text>

  <!-- Robot -->
  <circle cx="450" cy="150" r="25" fill="#c8e6c9" stroke="#388e3c" stroke-width="2"/> <!-- Head -->
  <rect x="440" y="175" width="20" height="50" fill="#c8e6c9" stroke="#388e3c" stroke-width="2"/> <!-- Body -->
  <line x1="435" y1="185" x2="420" y2="195" stroke="#388e3c" stroke-width="3"/> <!-- Left arm -->
  <line x1="465" y1="185" x2="480" y2="195" stroke="#388e3c" stroke-width="3"/> <!-- Right arm -->
  <line x1="445" y1="225" x2="440" y2="250" stroke="#388e3c" stroke-width="3"/> <!-- Left leg -->
  <line x1="455" y1="225" x2="460" y2="250" stroke="#388e3c" stroke-width="3"/> <!-- Right leg -->

  <!-- Robot speech bubble -->
  <path d="M450,120 Q420,100 400,120 Q380,140 400,150 Q420,160 450,150 Z" fill="white" stroke="#388e3c" stroke-width="2"/>
  <text x="425" y="135" font-family="Arial" font-size="10" text-anchor="middle" fill="#388e3c">Hello!</text>

  <!-- Communication modalities -->
  <rect x="100" y="280" width="100" height="60" fill="#e3f2fd" stroke="#1976d2" stroke-width="2" rx="5"/>
  <text x="150" y="300" font-family="Arial" font-size="10" text-anchor="middle" fill="#1976d2">Speech</text>
  <text x="150" y="315" font-family="Arial" font-size="8" text-anchor="middle" fill="#666">Natural Language</text>

  <rect x="220" y="280" width="100" height="60" fill="#f3e5f5" stroke="#7b1fa2" stroke-width="2" rx="5"/>
  <text x="270" y="300" font-family="Arial" font-size="10" text-anchor="middle" fill="#7b1fa2">Gestures</text>
  <text x="270" y="315" font-family="Arial" font-size="8" text-anchor="middle" fill="#666">Hand & Body</text>

  <rect x="340" y="280" width="100" height="60" fill="#e8f5e9" stroke="#388e3c" stroke-width="2" rx="5"/>
  <text x="390" y="300" font-family="Arial" font-size="10" text-anchor="middle" fill="#388e3c">Gaze</text>
  <text x="390" y="315" font-family="Arial" font-size="8" text-anchor="middle" fill="#666">Eye Contact</text>

  <rect x="460" y="280" width="100" height="60" fill="#fff3e0" stroke="#e65100" stroke-width="2" rx="5"/>
  <text x="510" y="300" font-family="Arial" font-size="10" text-anchor="middle" fill="#e65100">Touch</text>
  <text x="510" y="315" font-family="Arial" font-size="8" text-anchor="middle" fill="#666">Haptics</text>

  <!-- Arrows showing interaction -->
  <line x1="175" y1="150" x2="425" y2="150" stroke="#000" stroke-width="2" marker-end="url(#arrow)"/>
  <text x="300" y="145" font-family="Arial" font-size="10" text-anchor="middle" fill="#666">Interaction</text>

  <line x1="425" y1="170" x2="175" y2="170" stroke="#000" stroke-width="2" marker-end="url(#arrow)"/>
  <text x="300" y="185" font-family="Arial" font-size="10" text-anchor="middle" fill="#666">Response</text>

  <!-- Social robotics principles -->
  <rect x="50" y="360" width="120" height="25" fill="#e1f5fe" stroke="#0277bd" stroke-width="1" rx="3"/>
  <text x="110" y="378" font-family="Arial" font-size="10" text-anchor="middle" fill="#0277bd">Trust</text>

  <rect x="180" y="360" width="120" height="25" fill="#f3e5f5" stroke="#7b1fa2" stroke-width="1" rx="3"/>
  <text x="240" y="378" font-family="Arial" font-size="10" text-anchor="middle" fill="#7b1fa2">Safety</text>

  <rect x="310" y="360" width="120" height="25" fill="#e8f5e9" stroke="#388e3c" stroke-width="1" rx="3"/>
  <text x="370" y="378" font-family="Arial" font-size="10" text-anchor="middle" fill="#388e3c">Transparency</text>

  <rect x="440" y="360" width="120" height="25" fill="#fff3e0" stroke="#e65100" stroke-width="1" rx="3"/>
  <text x="500" y="378" font-family="Arial" font-size="10" text-anchor="middle" fill="#e65100">Adaptability</text>

  <!-- Interaction context -->
  <rect x="250" y="60" width="100" height="40" fill="#fce4ec" stroke="#c2185b" stroke-width="2" rx="5"/>
  <text x="300" y="80" font-family="Arial" font-size="10" text-anchor="middle" fill="#c2185b">Interaction</text>
  <text x="300" y="95" font-family="Arial" font-size="10" text-anchor="middle" fill="#c2185b">Context</text>

  <!-- Legend -->
  <rect x="20" y="320" width="120" height="30" fill="white" stroke="#ccc" stroke-width="1" rx="5"/>
  <text x="80" y="335" font-family="Arial" font-size="12" text-anchor="middle" fill="#212121">Legend</text>
  <circle cx="30" cy="345" r="5" fill="#bbdefb" stroke="#1976d2" stroke-width="1"/>
  <text x="40" y="349" font-family="Arial" font-size="10" text-anchor="start" fill="#212121">Human</text>
  <circle cx="80" cy="345" r="5" fill="#c8e6c9" stroke="#388e3c" stroke-width="1"/>
  <text x="90" y="349" font-family="Arial" font-size="10" text-anchor="start" fill="#212121">Robot</text>

  <!-- Labels -->
  <text x="300" y="45" font-family="Arial" font-size="12" text-anchor="middle" fill="#666">Human-Robot Communication and Interaction</text>

  <!-- Arrow marker definition -->
  <defs>
    <marker id="arrow" markerWidth="10" markerHeight="10" refX="8" refY="3" orient="auto" markerUnits="strokeWidth">
      <path d="M0,0 L0,6 L9,3 z" fill="#000" />
    </marker>
  </defs>
</svg>