<svg width="600" height="400" xmlns="http://www.w3.org/2000/svg">
  <!-- Background -->
  <rect width="100%" height="100%" fill="#f8f9fa"/>

  <!-- Title -->
  <text x="300" y="30" font-family="Arial" font-size="20" text-anchor="middle" fill="#25c2a0">Robot Learning Algorithm</text>

  <!-- Robot learning cycle -->
  <rect x="50" y="60" width="500" height="300" fill="white" stroke="#2196f3" stroke-width="2" rx="5"/>
  <text x="300" y="85" font-family="Arial" font-size="16" text-anchor="middle" fill="#2196f3">Learning Cycle</text>

  <!-- Robot -->
  <circle cx="120" cy="150" r="20" fill="#e0e0e0" stroke="#9e9e9e" stroke-width="2"/> <!-- Head -->
  <rect x="110" y="170" width="20" height="40" fill="#e0e0e0" stroke="#9e9e9e" stroke-width="2"/> <!-- Body -->
  <line x1="105" y1="180" x2="90" y2="185" stroke="#9e9e9e" stroke-width="3"/> <!-- Left arm -->
  <line x1="135" y1="180" x2="150" y2="185" stroke="#9e9e9e" stroke-width="3"/> <!-- Right arm -->

  <!-- Environment -->
  <rect x="400" y="140" width="80" height="80" fill="#c8e6c9" stroke="#388e3c" stroke-width="2" rx="5"/>
  <text x="440" y="170" font-family="Arial" font-size="12" text-anchor="middle" fill="#388e3c">Env</text>

  <!-- Action arrow -->
  <line x1="140" y1="160" x2="400" y2="160" stroke="#000" stroke-width="2" marker-end="url(#arrow)"/>
  <text x="270" y="155" font-family="Arial" font-size="10" text-anchor="middle" fill="#666">Action</text>

  <!-- Reward arrow -->
  <line x1="400" y1="200" x2="140" y2="200" stroke="#000" stroke-width="2" marker-end="url(#arrow)"/>
  <text x="270" y="195" font-family="Arial" font-size="10" text-anchor="middle" fill="#666">Reward</text>

  <!-- State arrow -->
  <line x1="400" y1="220" x2="140" y2="220" stroke="#000" stroke-width="2" marker-end="url(#arrow)"/>
  <text x="270" y="215" font-family="Arial" font-size="10" text-anchor="middle" fill="#666">State</text>

  <!-- Learning process -->
  <rect x="100" y="250" width="120" height="80" fill="#e3f2fd" stroke="#1976d2" stroke-width="2" rx="5"/>
  <text x="160" y="275" font-family="Arial" font-size="12" text-anchor="middle" fill="#1976d2">Learning</text>
  <text x="160" y="290" font-family="Arial" font-size="10" text-anchor="middle" fill="#666">Algorithm</text>
  <text x="160" y="305" font-family="Arial" font-size="10" text-anchor="middle" fill="#666">(DQN, PPO, etc.)</text>

  <!-- Experience buffer -->
  <rect x="250" y="270" width="100" height="40" fill="#f3e5f5" stroke="#7b1fa2" stroke-width="2" rx="5"/>
  <text x="300" y="290" font-family="Arial" font-size="10" text-anchor="middle" fill="#7b1fa2">Experience</text>
  <text x="300" y="305" font-family="Arial" font-size="10" text-anchor="middle" fill="#7b1fa2">Buffer</text>

  <!-- Policy update -->
  <rect x="380" y="270" width="100" height="40" fill="#fff3e0" stroke="#e65100" stroke-width="2" rx="5"/>
  <text x="430" y="290" font-family="Arial" font-size="10" text-anchor="middle" fill="#e65100">Policy</text>
  <text x="430" y="305" font-family="Arial" font-size="10" text-anchor="middle" fill="#e65100">Update</text>

  <!-- Arrows between learning components -->
  <line x1="220" y1="290" x2="250" y2="290" stroke="#000" stroke-width="1.5" marker-end="url(#arrow)"/>
  <line x1="350" y1="290" x2="380" y2="290" stroke="#000" stroke-width="1.5" marker-end="url(#arrow)"/>

  <!-- Learning types -->
  <rect x="50" y="370" width="140" height="25" fill="#e1f5fe" stroke="#0277bd" stroke-width="1" rx="3"/>
  <text x="120" y="388" font-family="Arial" font-size="10" text-anchor="middle" fill="#0277bd">Reinforcement Learning</text>

  <rect x="200" y="370" width="140" height="25" fill="#f3e5f5" stroke="#7b1fa2" stroke-width="1" rx="3"/>
  <text x="270" y="388" font-family="Arial" font-size="10" text-anchor="middle" fill="#7b1fa2">Imitation Learning</text>

  <rect x="350" y="370" width="140" height="25" fill="#e8f5e9" stroke="#388e3c" stroke-width="1" rx="3"/>
  <text x="420" y="388" font-family="Arial" font-size="10" text-anchor="middle" fill="#388e3c">Self-Supervised Learning</text>

  <!-- Legend -->
  <rect x="20" y="320" width="120" height="40" fill="white" stroke="#ccc" stroke-width="1" rx="5"/>
  <text x="80" y="335" font-family="Arial" font-size="12" text-anchor="middle" fill="#212121">Legend</text>
  <circle cx="30" cy="350" r="5" fill="#2196f3"/>
  <text x="40" y="354" font-family="Arial" font-size="10" text-anchor="start" fill="#212121">Robot</text>
  <rect x="80" y="346" width="10" height="8" fill="#c8e6c9" stroke="#388e3c" stroke-width="1"/>
  <text x="95" y="354" font-family="Arial" font-size="10" text-anchor="start" fill="#212121">Env</text>

  <!-- Labels -->
  <text x="300" y="45" font-family="Arial" font-size="12" text-anchor="middle" fill="#666">Robot Learning through Interaction</text>

  <!-- Arrow marker definition -->
  <defs>
    <marker id="arrow" markerWidth="10" markerHeight="10" refX="8" refY="3" orient="auto" markerUnits="strokeWidth">
      <path d="M0,0 L0,6 L9,3 z" fill="#000" />
    </marker>
  </defs>
</svg>