<svg width="600" height="400" xmlns="http://www.w3.org/2000/svg">
  <!-- Background -->
  <rect width="100%" height="100%" fill="#f8f9fa"/>

  <!-- Title -->
  <text x="300" y="30" font-family="Arial" font-size="20" text-anchor="middle" fill="#25c2a0">Robot Ethics and Safety</text>

  <!-- Robot -->
  <circle cx="150" cy="150" r="25" fill="#c8e6c9" stroke="#388e3c" stroke-width="2"/> <!-- Head -->
  <rect x="140" y="175" width="20" height="50" fill="#c8e6c9" stroke="#388e3c" stroke-width="2"/> <!-- Body -->
  <line x1="135" y1="185" x2="120" y2="195" stroke="#388e3c" stroke-width="3"/> <!-- Left arm -->
  <line x1="165" y1="185" x2="180" y2="195" stroke="#388e3c" stroke-width="3"/> <!-- Right arm -->
  <line x1="145" y1="225" x2="140" y2="250" stroke="#388e3c" stroke-width="3"/> <!-- Left leg -->
  <line x1="155" y1="225" x2="160" y2="250" stroke="#388e3c" stroke-width="3"/> <!-- Right leg -->

  <!-- Human -->
  <circle cx="450" cy="150" r="25" fill="#bbdefb" stroke="#1976d2" stroke-width="2"/> <!-- Head -->
  <rect x="440" y="175" width="20" height="50" fill="#bbdefb" stroke="#1976d2" stroke-width="2"/> <!-- Body -->
  <line x1="435" y1="185" x2="420" y2="195" stroke="#1976d2" stroke-width="3"/> <!-- Left arm -->
  <line x1="465" y1="185" x2="480" y2="195" stroke="#1976d2" stroke-width="3"/> <!-- Right arm -->
  <line x1="445" y1="225" x2="440" y2="250" stroke="#1976d2" stroke-width="3"/> <!-- Left leg -->
  <line x1="455" y1="225" x2="460" y2="250" stroke="#1976d2" stroke-width="3"/> <!-- Right leg -->

  <!-- Safety zone around human -->
  <circle cx="450" cy="150" r="80" fill="none" stroke="#ffc107" stroke-width="2" stroke-dasharray="5,5"/>
  <text x="450" y="260" font-family="Arial" font-size="10" text-anchor="middle" fill="#666">Safety Zone</text>

  <!-- Ethics principles -->
  <rect x="100" y="280" width="80" height="60" fill="#e8f5e9" stroke="#388e3c" stroke-width="2" rx="5"/>
  <text x="140" y="300" font-family="Arial" font-size="10" text-anchor="middle" fill="#388e3c">Beneficence</text>
  <text x="140" y="315" font-family="Arial" font-size="8" text-anchor="middle" fill="#666">Do Good</text>

  <rect x="200" y="280" width="80" height="60" fill="#ffcdd2" stroke="#d32f2f" stroke-width="2" rx="5"/>
  <text x="240" y="300" font-family="Arial" font-size="10" text-anchor="middle" fill="#d32f2f">Non-Maleficence</text>
  <text x="240" y="315" font-family="Arial" font-size="8" text-anchor="middle" fill="#666">Do No Harm</text>

  <rect x="300" y="280" width="80" height="60" fill="#e3f2fd" stroke="#1976d2" stroke-width="2" rx="5"/>
  <text x="340" y="300" font-family="Arial" font-size="10" text-anchor="middle" fill="#1976d2">Autonomy</text>
  <text x="340" y="315" font-family="Arial" font-size="8" text-anchor="middle" fill="#666">Respect Choice</text>

  <rect x="400" y="280" width="80" height="60" fill="#f3e5f5" stroke="#7b1fa2" stroke-width="2" rx="5"/>
  <text x="440" y="300" font-family="Arial" font-size="10" text-anchor="middle" fill="#7b1fa2">Justice</text>
  <text x="440" y="315" font-family="Arial" font-size="8" text-anchor="middle" fill="#666">Be Fair</text>

  <!-- Safety monitoring -->
  <rect x="250" y="60" width="100" height="40" fill="#e0f2f1" stroke="#00695c" stroke-width="2" rx="5"/>
  <text x="300" y="80" font-family="Arial" font-size="10" text-anchor="middle" fill="#00695c">Safety</text>
  <text x="300" y="95" font-family="Arial" font-size="10" text-anchor="middle" fill="#00695c">Monitor</text>

  <!-- Data privacy -->
  <rect x="50" y="60" width="100" height="40" fill="#f3e5f5" stroke="#7b1fa2" stroke-width="2" rx="5"/>
  <text x="100" y="80" font-family="Arial" font-size="10" text-anchor="middle" fill="#7b1fa2">Privacy</text>
  <text x="100" y="95" font-family="Arial" font-size="10" text-anchor="middle" fill="#7b1fa2">Manager</text>

  <!-- Ethical decision making -->
  <rect x="450" y="60" width="100" height="40" fill="#fff3e0" stroke="#e65100" stroke-width="2" rx="5"/>
  <text x="500" y="80" font-family="Arial" font-size="10" text-anchor="middle" fill="#e65100">Ethics</text>
  <text x="500" y="95" font-family="Arial" font-size="10" text-anchor="middle" fill="#e65100">Engine</text>

  <!-- Arrows showing relationships -->
  <line x1="100" y1="100" x2="150" y2="150" stroke="#7b1fa2" stroke-width="2" marker-end="url(#arrow)"/>
  <line x1="500" y1="100" x2="450" y2="150" stroke="#e65100" stroke-width="2" marker-end="url(#arrow)"/>
  <line x1="300" y1="100" x2="300" y2="150" stroke="#00695c" stroke-width="2" marker-end="url(#arrow)"/>

  <!-- Safety levels -->
  <rect x="50" y="360" width="100" height="25" fill="#c8e6c9" stroke="#388e3c" stroke-width="1" rx="3"/>
  <text x="100" y="378" font-family="Arial" font-size="10" text-anchor="middle" fill="#388e3c">Normal</text>

  <rect x="160" y="360" width="100" height="25" fill="#fff3e0" stroke="#e65100" stroke-width="1" rx="3"/>
  <text x="210" y="378" font-family="Arial" font-size="10" text-anchor="middle" fill="#e65100">Caution</text>

  <rect x="270" y="360" width="100" height="25" fill="#ffe0b2" stroke="#f57c00" stroke-width="1" rx="3"/>
  <text x="320" y="378" font-family="Arial" font-size="10" text-anchor="middle" fill="#f57c00">Warning</text>

  <rect x="380" y="360" width="100" height="25" fill="#ffcdd2" stroke="#d32f2f" stroke-width="1" rx="3"/>
  <text x="430" y="378" font-family="Arial" font-size="10" text-anchor="middle" fill="#d32f2f">Emergency</text>

  <!-- Interaction with safety -->
  <line x1="175" y1="150" x2="425" y2="150" stroke="#000" stroke-width="1.5" stroke-dasharray="3,3"/>
  <text x="300" y="145" font-family="Arial" font-size="10" text-anchor="middle" fill="#666">Safe Interaction</text>

  <!-- Legend -->
  <rect x="20" y="320" width="120" height="30" fill="white" stroke="#ccc" stroke-width="1" rx="5"/>
  <text x="80" y="335" font-family="Arial" font-size="12" text-anchor="middle" fill="#212121">Legend</text>
  <circle cx="30" cy="345" r="5" fill="#c8e6c9" stroke="#388e3c" stroke-width="1"/>
  <text x="40" y="349" font-family="Arial" font-size="10" text-anchor="start" fill="#212121">Robot</text>
  <circle cx="80" cy="345" r="5" fill="#bbdefb" stroke="#1976d2" stroke-width="1"/>
  <text x="90" y="349" font-family="Arial" font-size="10" text-anchor="start" fill="#212121">Human</text>

  <!-- Labels -->
  <text x="300" y="45" font-family="Arial" font-size="12" text-anchor="middle" fill="#666">Ethical and Safe Human-Robot Interaction</text>

  <!-- Arrow marker definition -->
  <defs>
    <marker id="arrow" markerWidth="10" markerHeight="10" refX="8" refY="3" orient="auto" markerUnits="strokeWidth">
      <path d="M0,0 L0,6 L9,3 z" fill="#000" />
    </marker>
  </defs>
</svg>